<svg xmlns="http://www.w3.org/2000/svg" viewBox="0 0 1200 800" width="1200" height="800">
  <defs>
    <linearGradient id="og3" x1="0%" y1="0%" x2="100%" y2="100%">
      <stop offset="0%" stop-color="#FF4500"/>
      <stop offset="30%" stop-color="#FF6B1A"/>
      <stop offset="60%" stop-color="#FF8C00"/>
      <stop offset="100%" stop-color="#FFB347"/>
    </linearGradient>
    <linearGradient id="cpuG3" x1="0%" y1="0%" x2="100%" y2="0%">
      <stop offset="0%" stop-color="#E95420"/>
      <stop offset="100%" stop-color="#FF8C00"/>
    </linearGradient>
    <linearGradient id="memG3" x1="0%" y1="0%" x2="100%" y2="0%">
      <stop offset="0%" stop-color="#FF8C00"/>
      <stop offset="100%" stop-color="#FFB347"/>
    </linearGradient>
    <linearGradient id="diskG3" x1="0%" y1="0%" x2="100%" y2="0%">
      <stop offset="0%" stop-color="#C01C28"/>
      <stop offset="100%" stop-color="#E05454"/>
    </linearGradient>
    <filter id="cs3">
      <feDropShadow dx="0" dy="1" stdDeviation="4" flood-color="#000000" flood-opacity="0.08"/>
    </filter>
  </defs>

  <!-- Background (warm cream) -->
  <rect width="1200" height="800" fill="#F5F0EB"/>

  <!-- ===== SIDEBAR ===== -->
  <rect x="0" y="0" width="220" height="800" fill="#EDE7E0"/>
  <line x1="220" y1="0" x2="220" y2="800" stroke="#D4CEC7" stroke-width="1"/>

  <!-- Logo -->
  <text x="28" y="38" font-family="SF Pro Display, Helvetica Neue, sans-serif" font-size="22" font-weight="700" fill="url(#og3)" letter-spacing="3">NEXIS</text>
  <line x1="20" y1="55" x2="200" y2="55" stroke="#D4CEC7" stroke-width="1"/>

  <!-- Collapse button -->
  <rect x="190" y="22" width="20" height="20" rx="4" fill="#E2DCD5"/>
  <text x="196" y="36" font-family="sans-serif" font-size="10" fill="#9A9DA6" text-anchor="middle">«</text>

  <!-- Section: MONITOR -->
  <text x="28" y="82" font-family="SF Pro Display, sans-serif" font-size="9" font-weight="600" fill="#9A9DA6" letter-spacing="2">MONITOR</text>

  <!-- Dashboard (selected) -->
  <rect x="12" y="92" width="196" height="36" rx="8" fill="#E95420" opacity="0.1"/>
  <rect x="12" y="92" width="3" height="36" rx="1.5" fill="#E95420"/>
  <text x="56" y="114" font-family="SF Pro Display, sans-serif" font-size="13" font-weight="600" fill="#E95420">Dashboard</text>

  <text x="56" y="150" font-family="SF Pro Display, sans-serif" font-size="13" fill="#5E5C64">Hardware Info</text>
  <text x="56" y="178" font-family="SF Pro Display, sans-serif" font-size="13" fill="#5E5C64">Resources</text>

  <line x1="28" y1="198" x2="192" y2="198" stroke="#D4CEC7" stroke-width="1"/>

  <text x="28" y="218" font-family="SF Pro Display, sans-serif" font-size="9" font-weight="600" fill="#9A9DA6" letter-spacing="2">MANAGE</text>

  <text x="56" y="244" font-family="SF Pro Display, sans-serif" font-size="13" fill="#5E5C64">System Cleaner</text>
  <rect x="160" y="233" width="38" height="18" rx="9" fill="#E95420" opacity="0.12"/>
  <text x="179" y="245" font-family="SF Pro Display, sans-serif" font-size="9" font-weight="600" fill="#E95420" text-anchor="middle">2.1 GB</text>

  <text x="56" y="270" font-family="SF Pro Display, sans-serif" font-size="13" fill="#5E5C64">Processes</text>
  <text x="56" y="296" font-family="SF Pro Display, sans-serif" font-size="13" fill="#5E5C64">Services</text>
  <text x="56" y="322" font-family="SF Pro Display, sans-serif" font-size="13" fill="#5E5C64">Startup Apps</text>
  <text x="56" y="348" font-family="SF Pro Display, sans-serif" font-size="13" fill="#5E5C64">Applications</text>

  <line x1="28" y1="366" x2="192" y2="366" stroke="#D4CEC7" stroke-width="1"/>

  <text x="28" y="386" font-family="SF Pro Display, sans-serif" font-size="9" font-weight="600" fill="#9A9DA6" letter-spacing="2">SYSTEM</text>

  <text x="56" y="412" font-family="SF Pro Display, sans-serif" font-size="13" fill="#5E5C64">Docker</text>
  <circle cx="198" cy="406" r="4" fill="#26A269"/>

  <text x="56" y="438" font-family="SF Pro Display, sans-serif" font-size="13" fill="#5E5C64">Helpers</text>
  <text x="56" y="464" font-family="SF Pro Display, sans-serif" font-size="13" fill="#5E5C64">Repositories</text>
  <text x="56" y="490" font-family="SF Pro Display, sans-serif" font-size="13" fill="#5E5C64">GNOME Settings</text>

  <line x1="28" y1="740" x2="192" y2="740" stroke="#D4CEC7" stroke-width="1"/>
  <text x="56" y="768" font-family="SF Pro Display, sans-serif" font-size="13" fill="#5E5C64">Settings</text>
  <text x="56" y="792" font-family="SF Pro Display, sans-serif" font-size="11" fill="#9A9DA6">v1.2.1</text>

  <!-- ===== MAIN CONTENT (Light theme) ===== -->

  <!-- Hero Card: CPU + Memory -->
  <rect x="240" y="20" width="460" height="220" rx="16" fill="#FFFFFF" filter="url(#cs3)"/>
  <rect x="240" y="20" width="460" height="220" rx="16" fill="none" stroke="#E8E2DB" stroke-width="1"/>

  <!-- CPU -->
  <text x="268" y="52" font-family="SF Pro Display, sans-serif" font-size="11" font-weight="600" fill="#9A9DA6" letter-spacing="1">CPU</text>
  <text x="268" y="90" font-family="SF Pro Display, sans-serif" font-size="36" font-weight="700" fill="#1A1C22">22%</text>
  <text x="342" y="90" font-family="SF Pro Display, sans-serif" font-size="13" fill="#9A9DA6">2.83 GHz</text>
  <polyline points="268,120 280,118 292,122 304,115 316,128 328,110 340,118 352,108 364,125 376,112 388,120 400,116 412,122 424,118 436,114 448,120"
            fill="none" stroke="#E95420" stroke-width="2" stroke-linejoin="round"/>
  <polyline points="268,120 280,118 292,122 304,115 316,128 328,110 340,118 352,108 364,125 376,112 388,120 400,116 412,122 424,118 436,114 448,120 448,140 268,140"
            fill="#E95420" opacity="0.06"/>
  <path d="M 268 155 L 448 155" stroke="#E8E2DB" stroke-width="6" stroke-linecap="round"/>
  <path d="M 268 155 L 308 155" stroke="url(#cpuG3)" stroke-width="6" stroke-linecap="round"/>
  <text x="268" y="178" font-family="SF Pro Display, sans-serif" font-size="10" fill="#9A9DA6">Ryzen 7 5700X • 8C/16T</text>
  <text x="448" y="178" font-family="SF Pro Display, sans-serif" font-size="10" fill="#26A269" text-anchor="end">↓ stable</text>

  <line x1="470" y1="40" x2="470" y2="220" stroke="#E8E2DB" stroke-width="1"/>

  <!-- Memory -->
  <text x="492" y="52" font-family="SF Pro Display, sans-serif" font-size="11" font-weight="600" fill="#9A9DA6" letter-spacing="1">MEMORY</text>
  <text x="492" y="90" font-family="SF Pro Display, sans-serif" font-size="36" font-weight="700" fill="#1A1C22">16%</text>
  <text x="560" y="90" font-family="SF Pro Display, sans-serif" font-size="13" fill="#9A9DA6">5.0 / 31.2 GiB</text>
  <polyline points="492,120 504,119 516,120 528,119 540,120 552,118 564,120 576,119 588,121 600,119 612,120 624,118 636,120 648,119 660,120 672,119"
            fill="none" stroke="#FF8C00" stroke-width="2" stroke-linejoin="round"/>
  <polyline points="492,120 504,119 516,120 528,119 540,120 552,118 564,120 576,119 588,121 600,119 612,120 624,118 636,120 648,119 660,120 672,119 672,140 492,140"
            fill="#FF8C00" opacity="0.06"/>
  <path d="M 492 155 L 672 155" stroke="#E8E2DB" stroke-width="6" stroke-linecap="round"/>
  <path d="M 492 155 L 521 155" stroke="url(#memG3)" stroke-width="6" stroke-linecap="round"/>
  <text x="492" y="178" font-family="SF Pro Display, sans-serif" font-size="10" fill="#9A9DA6">Swap: 308 KiB / 8.0 GiB</text>
  <text x="672" y="178" font-family="SF Pro Display, sans-serif" font-size="10" fill="#26A269" text-anchor="end">→ stable</text>

  <!-- Disk -->
  <rect x="714" y="20" width="224" height="220" rx="16" fill="#FFFFFF" filter="url(#cs3)"/>
  <rect x="714" y="20" width="224" height="220" rx="16" fill="none" stroke="#E8E2DB" stroke-width="1"/>
  <text x="740" y="52" font-family="SF Pro Display, sans-serif" font-size="11" font-weight="600" fill="#9A9DA6" letter-spacing="1">DISK</text>
  <circle cx="826" cy="120" r="50" fill="none" stroke="#E8E2DB" stroke-width="10"/>
  <circle cx="826" cy="120" r="50" fill="none" stroke="url(#diskG3)" stroke-width="10"
          stroke-dasharray="28 286" stroke-dashoffset="0" transform="rotate(-90 826 120)"/>
  <text x="826" y="116" font-family="SF Pro Display, sans-serif" font-size="22" font-weight="700" fill="#1A1C22" text-anchor="middle">9%</text>
  <text x="826" y="134" font-family="SF Pro Display, sans-serif" font-size="9" fill="#9A9DA6" text-anchor="middle">83.8 / 937 GiB</text>
  <text x="740" y="198" font-family="SF Pro Display, sans-serif" font-size="10" fill="#9A9DA6">NVMe 1: </text>
  <text x="790" y="198" font-family="SF Pro Display, sans-serif" font-size="10" fill="#26A269">Good</text>
  <text x="740" y="216" font-family="SF Pro Display, sans-serif" font-size="10" fill="#9A9DA6">NVMe 2: </text>
  <text x="790" y="216" font-family="SF Pro Display, sans-serif" font-size="10" fill="#26A269">Good</text>

  <!-- Network -->
  <rect x="952" y="20" width="228" height="220" rx="16" fill="#FFFFFF" filter="url(#cs3)"/>
  <rect x="952" y="20" width="228" height="220" rx="16" fill="none" stroke="#E8E2DB" stroke-width="1"/>
  <text x="978" y="52" font-family="SF Pro Display, sans-serif" font-size="11" font-weight="600" fill="#9A9DA6" letter-spacing="1">NETWORK</text>
  <text x="978" y="78" font-family="SF Pro Display, sans-serif" font-size="10" fill="#26A69A">↓ Download</text>
  <text x="1154" y="78" font-family="SF Pro Display, sans-serif" font-size="18" font-weight="600" fill="#1A1C22" text-anchor="end">28.7 KB/s</text>
  <polyline points="978,96 994,94 1010,98 1026,90 1042,102 1058,88 1074,95 1090,85 1106,100 1122,92 1138,96 1154,93"
            fill="none" stroke="#26A69A" stroke-width="1.5" stroke-linejoin="round"/>
  <polyline points="978,96 994,94 1010,98 1026,90 1042,102 1058,88 1074,95 1090,85 1106,100 1122,92 1138,96 1154,93 1154,110 978,110"
            fill="#26A69A" opacity="0.06"/>

  <text x="978" y="136" font-family="SF Pro Display, sans-serif" font-size="10" fill="#C01C28">↑ Upload</text>
  <text x="1154" y="136" font-family="SF Pro Display, sans-serif" font-size="18" font-weight="600" fill="#1A1C22" text-anchor="end">8.0 KB/s</text>
  <polyline points="978,154 994,153 1010,155 1026,152 1042,156 1058,151 1074,154 1090,150 1106,155 1122,152 1138,154 1154,153"
            fill="none" stroke="#C01C28" stroke-width="1.5" stroke-linejoin="round"/>

  <line x1="978" y1="182" x2="1154" y2="182" stroke="#E8E2DB" stroke-width="1"/>
  <text x="978" y="200" font-family="SF Pro Display, sans-serif" font-size="10" fill="#9A9DA6">Total ↓ 9.2 GiB</text>
  <text x="1154" y="200" font-family="SF Pro Display, sans-serif" font-size="10" fill="#9A9DA6" text-anchor="end">Total ↑ 25.8 GiB</text>

  <!-- Row 2 -->
  <!-- GPU -->
  <rect x="240" y="256" width="224" height="180" rx="16" fill="#FFFFFF" filter="url(#cs3)"/>
  <rect x="240" y="256" width="224" height="180" rx="16" fill="none" stroke="#E8E2DB" stroke-width="1"/>
  <text x="268" y="288" font-family="SF Pro Display, sans-serif" font-size="11" font-weight="600" fill="#9A9DA6" letter-spacing="1">GPU</text>
  <text x="268" y="320" font-family="SF Pro Display, sans-serif" font-size="30" font-weight="700" fill="#1A1C22">0%</text>
  <polyline points="268,350 290,350 312,350 334,350 356,349 378,350 400,350 422,350 438,350"
            fill="none" stroke="#813D9C" stroke-width="2"/>
  <text x="268" y="394" font-family="SF Pro Display, sans-serif" font-size="10" fill="#9A9DA6">NVIDIA GPU 1</text>
  <rect x="268" y="404" width="140" height="22" rx="4" fill="#F5F0EB" stroke="#E8E2DB" stroke-width="1"/>
  <text x="278" y="419" font-family="SF Pro Display, sans-serif" font-size="9" fill="#5E5C64">NVIDIA GPU 1 ▾</text>

  <!-- Temperature -->
  <rect x="478" y="256" width="222" height="180" rx="16" fill="#FFFFFF" filter="url(#cs3)"/>
  <rect x="478" y="256" width="222" height="180" rx="16" fill="none" stroke="#E8E2DB" stroke-width="1"/>
  <text x="506" y="288" font-family="SF Pro Display, sans-serif" font-size="11" font-weight="600" fill="#9A9DA6" letter-spacing="1">TEMPERATURE</text>
  <text x="506" y="324" font-family="SF Pro Display, sans-serif" font-size="30" font-weight="700" fill="#1A1C22">29.9°C</text>
  <polyline points="506,354 522,352 538,356 554,350 570,354 586,348 602,356 618,352 634,350 650,354 666,352 674,353"
            fill="none" stroke="#1C71D8" stroke-width="2" stroke-linejoin="round"/>
  <polyline points="506,354 522,352 538,356 554,350 570,354 586,348 602,356 618,352 634,350 650,354 666,352 674,353 674,370 506,370"
            fill="#1C71D8" opacity="0.06"/>
  <rect x="506" y="384" width="160" height="22" rx="4" fill="#F5F0EB" stroke="#E8E2DB" stroke-width="1"/>
  <text x="516" y="399" font-family="SF Pro Display, sans-serif" font-size="9" fill="#5E5C64">NVMe - Sensor 2 ▾</text>

  <!-- Battery -->
  <rect x="714" y="256" width="224" height="180" rx="16" fill="#FFFFFF" filter="url(#cs3)"/>
  <rect x="714" y="256" width="224" height="180" rx="16" fill="none" stroke="#E8E2DB" stroke-width="1"/>
  <text x="742" y="288" font-family="SF Pro Display, sans-serif" font-size="11" font-weight="600" fill="#9A9DA6" letter-spacing="1">BATTERY</text>
  <text x="742" y="324" font-family="SF Pro Display, sans-serif" font-size="30" font-weight="700" fill="#1A1C22">85%</text>
  <rect x="812" y="306" width="32" height="16" rx="3" fill="none" stroke="#26A269" stroke-width="1.5"/>
  <rect x="844" y="310" width="3" height="8" rx="1" fill="#26A269"/>
  <rect x="815" y="309" width="24" height="10" rx="1.5" fill="#26A269"/>
  <polyline points="742,354 758,353 774,352 790,354 806,353 822,352 838,354 854,353 870,352 886,353 902,352 910,353"
            fill="none" stroke="#26A269" stroke-width="2" stroke-linejoin="round"/>
  <text x="742" y="392" font-family="SF Pro Display, sans-serif" font-size="10" fill="#9A9DA6">Charging • 523 cycles</text>
  <text x="910" y="392" font-family="SF Pro Display, sans-serif" font-size="10" fill="#26A269" text-anchor="end">Healthy</text>

  <!-- Disk Health -->
  <rect x="952" y="256" width="228" height="180" rx="16" fill="#FFFFFF" filter="url(#cs3)"/>
  <rect x="952" y="256" width="228" height="180" rx="16" fill="none" stroke="#E8E2DB" stroke-width="1"/>
  <text x="980" y="288" font-family="SF Pro Display, sans-serif" font-size="11" font-weight="600" fill="#9A9DA6" letter-spacing="1">DISK HEALTH</text>
  <rect x="980" y="302" width="174" height="44" rx="8" fill="#F5F0EB"/>
  <text x="994" y="320" font-family="SF Pro Display, sans-serif" font-size="11" font-weight="600" fill="#1A1C22">NVMe 1</text>
  <circle cx="1060" cy="316" r="4" fill="#26A269"/>
  <text x="1070" y="320" font-family="SF Pro Display, sans-serif" font-size="10" fill="#26A269">Good</text>
  <text x="994" y="338" font-family="SF Pro Display, sans-serif" font-size="9" fill="#9A9DA6">937 GB NVMe • 30°C</text>
  <rect x="980" y="354" width="174" height="44" rx="8" fill="#F5F0EB"/>
  <text x="994" y="372" font-family="SF Pro Display, sans-serif" font-size="11" font-weight="600" fill="#1A1C22">NVMe 2</text>
  <circle cx="1060" cy="368" r="4" fill="#26A269"/>
  <text x="1070" y="372" font-family="SF Pro Display, sans-serif" font-size="10" fill="#26A269">Good</text>
  <text x="994" y="390" font-family="SF Pro Display, sans-serif" font-size="9" fill="#9A9DA6">512 GB NVMe • 28°C</text>

  <!-- Quick Actions -->
  <rect x="240" y="452" width="460" height="70" rx="16" fill="#FFFFFF" filter="url(#cs3)"/>
  <rect x="240" y="452" width="460" height="70" rx="16" fill="none" stroke="#E8E2DB" stroke-width="1"/>
  <text x="268" y="478" font-family="SF Pro Display, sans-serif" font-size="11" font-weight="600" fill="#9A9DA6" letter-spacing="1">QUICK ACTIONS</text>
  <rect x="268" y="490" width="120" height="24" rx="12" fill="#E95420" opacity="0.1" stroke="#E95420" stroke-width="1"/>
  <text x="328" y="506" font-family="SF Pro Display, sans-serif" font-size="10" font-weight="600" fill="#E95420" text-anchor="middle">Clean System</text>
  <rect x="400" y="490" width="120" height="24" rx="12" fill="#F5F0EB" stroke="#E8E2DB" stroke-width="1"/>
  <text x="460" y="506" font-family="SF Pro Display, sans-serif" font-size="10" fill="#5E5C64" text-anchor="middle">View Processes</text>
  <rect x="532" y="490" width="130" height="24" rx="12" fill="#F5F0EB" stroke="#E8E2DB" stroke-width="1"/>
  <text x="597" y="506" font-family="SF Pro Display, sans-serif" font-size="10" fill="#5E5C64" text-anchor="middle">Check Updates</text>

  <!-- System Summary -->
  <rect x="714" y="452" width="466" height="70" rx="16" fill="#FFFFFF" filter="url(#cs3)"/>
  <rect x="714" y="452" width="466" height="70" rx="16" fill="none" stroke="#E8E2DB" stroke-width="1"/>
  <text x="742" y="478" font-family="SF Pro Display, sans-serif" font-size="11" font-weight="600" fill="#9A9DA6" letter-spacing="1">SYSTEM</text>
  <text x="742" y="500" font-family="SF Pro Display, sans-serif" font-size="11" fill="#1A1C22">media</text>
  <text x="788" y="500" font-family="SF Pro Display, sans-serif" font-size="11" fill="#9A9DA6">• Ubuntu 24.04 • Ryzen 7 5700X</text>
  <text x="742" y="516" font-family="SF Pro Display, sans-serif" font-size="10" fill="#9A9DA6">Last clean: 2h ago (2.3 GB) • Next scheduled: Tomorrow 3:00 AM</text>

  <!-- Footer -->
  <rect x="240" y="770" width="940" height="24" fill="#EDE7E0"/>
  <text x="260" y="786" font-family="SF Pro Display, sans-serif" font-size="9" fill="#9A9DA6">Ctrl+K: Command Palette</text>
  <text x="1160" y="786" font-family="SF Pro Display, sans-serif" font-size="9" fill="#9A9DA6" text-anchor="end">Nexis v1.2.1 • Refreshing every 1s</text>

  <!-- Title -->
  <text x="720" y="562" font-family="SF Pro Display, sans-serif" font-size="14" font-weight="700" fill="#E95420" text-anchor="middle">Concept A: Bento Dashboard — Light / Cream Theme</text>
  <text x="720" y="582" font-family="SF Pro Display, sans-serif" font-size="11" fill="#9A9DA6" text-anchor="middle">Warm cream base (#F5F0EB) • White cards • Orange accent preserved • Soft shadows</text>
</svg>
