<svg xmlns="http://www.w3.org/2000/svg" viewBox="0 0 1200 800" width="1200" height="800">
  <defs>
    <linearGradient id="og4" x1="0%" y1="0%" x2="100%" y2="100%">
      <stop offset="0%" stop-color="#FF4500"/>
      <stop offset="30%" stop-color="#FF6B1A"/>
      <stop offset="60%" stop-color="#FF8C00"/>
      <stop offset="100%" stop-color="#FFB347"/>
    </linearGradient>
    <filter id="cs4">
      <feDropShadow dx="0" dy="2" stdDeviation="6" flood-color="#000000" flood-opacity="0.3"/>
    </filter>
  </defs>

  <!-- Background -->
  <rect width="1200" height="800" fill="#1A1C22"/>

  <!-- ===== TOP NAVIGATION BAR ===== -->
  <rect x="0" y="0" width="1200" height="52" fill="#222228"/>
  <line x1="0" y1="52" x2="1200" y2="52" stroke="#3A3D4A" stroke-width="1"/>

  <!-- Logo -->
  <text x="28" y="33" font-family="SF Pro Display, Helvetica Neue, sans-serif" font-size="18" font-weight="700" fill="url(#og4)" letter-spacing="2">NEXIS</text>

  <!-- Nav items -->
  <!-- Dashboard (active) -->
  <rect x="120" y="10" width="100" height="32" rx="8" fill="#FF6B1A" opacity="0.15"/>
  <text x="170" y="31" font-family="SF Pro Display, sans-serif" font-size="13" font-weight="600" fill="#FF6B1A" text-anchor="middle">Dashboard</text>
  <rect x="145" y="48" width="50" height="3" rx="1.5" fill="#FF6B1A"/>

  <!-- Hardware dropdown -->
  <text x="268" y="31" font-family="SF Pro Display, sans-serif" font-size="13" fill="#9A9DA6" text-anchor="middle">Hardware ▾</text>

  <!-- Tools dropdown -->
  <text x="368" y="31" font-family="SF Pro Display, sans-serif" font-size="13" fill="#9A9DA6" text-anchor="middle">Tools ▾</text>

  <!-- System dropdown -->
  <text x="460" y="31" font-family="SF Pro Display, sans-serif" font-size="13" fill="#9A9DA6" text-anchor="middle">System ▾</text>

  <!-- Right side: Search + Settings -->
  <rect x="1000" y="12" width="140" height="28" rx="14" fill="#2A2C32" stroke="#3A3D4A" stroke-width="1"/>
  <text x="1020" y="30" font-family="SF Pro Display, sans-serif" font-size="10" fill="#6B6E78">Search...</text>
  <text x="1124" y="30" font-family="SF Pro Display, sans-serif" font-size="9" fill="#6B6E78">Ctrl+K</text>

  <!-- Settings icon -->
  <circle cx="1168" cy="26" r="12" fill="#2A2C32"/>
  <circle cx="1168" cy="26" r="6" fill="none" stroke="#9A9DA6" stroke-width="1.3"/>
  <circle cx="1168" cy="26" r="2" fill="#9A9DA6"/>

  <!-- ===== DASHBOARD CONTENT (Full Width!) ===== -->

  <!-- Row 1: 3 Equal Cards -->
  <g>
    <!-- CPU Card -->
    <rect x="24" y="72" width="380" height="200" rx="16" fill="#2A2C32" filter="url(#cs4)"/>
    <rect x="24" y="72" width="380" height="200" rx="16" fill="none" stroke="#3A3D4A" stroke-width="1"/>
    <text x="52" y="100" font-family="SF Pro Display, sans-serif" font-size="11" font-weight="600" fill="#6B6E78" letter-spacing="1">CPU</text>
    <text x="52" y="140" font-family="SF Pro Display, sans-serif" font-size="44" font-weight="700" fill="#F0F2F5">22%</text>
    <text x="158" y="140" font-family="SF Pro Display, sans-serif" font-size="16" fill="#6B6E78">2.83 GHz</text>
    <!-- Sparkline -->
    <polyline points="52,170 72,166 92,174 112,160 132,178 152,156 172,168 192,154 212,174 232,162 252,168 272,164 292,172 312,166 332,162 352,168 372,164"
              fill="none" stroke="#FF6B1A" stroke-width="2.5" stroke-linejoin="round"/>
    <polyline points="52,170 72,166 92,174 112,160 132,178 152,156 172,168 192,154 212,174 232,162 252,168 272,164 292,172 312,166 332,162 352,168 372,164 372,190 52,190"
              fill="#FF6B1A" opacity="0.06"/>
    <!-- Gauge bar -->
    <path d="M 52 208 L 372 208" stroke="#32343A" stroke-width="6" stroke-linecap="round"/>
    <path d="M 52 208 L 123 208" stroke="#FF6B1A" stroke-width="6" stroke-linecap="round"/>
    <text x="52" y="230" font-family="SF Pro Display, sans-serif" font-size="10" fill="#6B6E78">Ryzen 7 5700X • 8C/16T</text>
    <text x="372" y="230" font-family="SF Pro Display, sans-serif" font-size="10" fill="#2EC27E" text-anchor="end">↓ stable</text>
    <!-- Details link -->
    <text x="372" y="258" font-family="SF Pro Display, sans-serif" font-size="10" font-weight="600" fill="#FF6B1A" text-anchor="end">Details →</text>
  </g>

  <g>
    <!-- Memory Card -->
    <rect x="416" y="72" width="380" height="200" rx="16" fill="#2A2C32" filter="url(#cs4)"/>
    <rect x="416" y="72" width="380" height="200" rx="16" fill="none" stroke="#3A3D4A" stroke-width="1"/>
    <text x="444" y="100" font-family="SF Pro Display, sans-serif" font-size="11" font-weight="600" fill="#6B6E78" letter-spacing="1">MEMORY</text>
    <text x="444" y="140" font-family="SF Pro Display, sans-serif" font-size="44" font-weight="700" fill="#F0F2F5">16%</text>
    <text x="544" y="140" font-family="SF Pro Display, sans-serif" font-size="16" fill="#6B6E78">5.0 / 31.2 GiB</text>
    <polyline points="444,170 464,169 484,170 504,169 524,171 544,168 564,170 584,169 604,171 624,169 644,170 664,168 684,170 704,169 724,170 744,169 764,170"
              fill="none" stroke="#FFB347" stroke-width="2.5" stroke-linejoin="round"/>
    <polyline points="444,170 464,169 484,170 504,169 524,171 544,168 564,170 584,169 604,171 624,169 644,170 664,168 684,170 704,169 724,170 744,169 764,170 764,190 444,190"
              fill="#FFB347" opacity="0.06"/>
    <path d="M 444 208 L 764 208" stroke="#32343A" stroke-width="6" stroke-linecap="round"/>
    <path d="M 444 208 L 495 208" stroke="#FFB347" stroke-width="6" stroke-linecap="round"/>
    <text x="444" y="230" font-family="SF Pro Display, sans-serif" font-size="10" fill="#6B6E78">Swap: 308 KiB / 8.0 GiB (0%)</text>
    <text x="764" y="230" font-family="SF Pro Display, sans-serif" font-size="10" fill="#2EC27E" text-anchor="end">→ stable</text>
    <text x="764" y="258" font-family="SF Pro Display, sans-serif" font-size="10" font-weight="600" fill="#FF6B1A" text-anchor="end">Details →</text>
  </g>

  <g>
    <!-- Disk Card -->
    <rect x="808" y="72" width="372" height="200" rx="16" fill="#2A2C32" filter="url(#cs4)"/>
    <rect x="808" y="72" width="372" height="200" rx="16" fill="none" stroke="#3A3D4A" stroke-width="1"/>
    <text x="836" y="100" font-family="SF Pro Display, sans-serif" font-size="11" font-weight="600" fill="#6B6E78" letter-spacing="1">DISK</text>

    <!-- Donut -->
    <circle cx="920" cy="168" r="48" fill="none" stroke="#32343A" stroke-width="10"/>
    <circle cx="920" cy="168" r="48" fill="none" stroke="#E05454" stroke-width="10"
            stroke-dasharray="27 275" stroke-dashoffset="0" transform="rotate(-90 920 168)"/>
    <text x="920" y="164" font-family="SF Pro Display, sans-serif" font-size="24" font-weight="700" fill="#F0F2F5" text-anchor="middle">9%</text>
    <text x="920" y="182" font-family="SF Pro Display, sans-serif" font-size="9" fill="#6B6E78" text-anchor="middle">83.8/937 GiB</text>

    <!-- Drive list -->
    <text x="1000" y="148" font-family="SF Pro Display, sans-serif" font-size="10" fill="#6B6E78">NVMe 1:</text>
    <text x="1052" y="148" font-family="SF Pro Display, sans-serif" font-size="10" fill="#2EC27E">Good</text>
    <text x="1000" y="168" font-family="SF Pro Display, sans-serif" font-size="10" fill="#6B6E78">NVMe 2:</text>
    <text x="1052" y="168" font-family="SF Pro Display, sans-serif" font-size="10" fill="#2EC27E">Good</text>
    <rect x="1000" y="182" width="80" height="20" rx="10" fill="#FF6B1A" opacity="0.12" stroke="#FF6B1A" stroke-width="0.5"/>
    <text x="1040" y="196" font-family="SF Pro Display, sans-serif" font-size="9" font-weight="600" fill="#FF6B1A" text-anchor="middle">Clean 2.1 GB</text>
    <text x="1148" y="258" font-family="SF Pro Display, sans-serif" font-size="10" font-weight="600" fill="#FF6B1A" text-anchor="end">Details →</text>
  </g>

  <!-- Row 2: 4 smaller cards -->
  <g>
    <!-- GPU -->
    <rect x="24" y="290" width="280" height="160" rx="16" fill="#2A2C32" filter="url(#cs4)"/>
    <rect x="24" y="290" width="280" height="160" rx="16" fill="none" stroke="#3A3D4A" stroke-width="1"/>
    <text x="52" y="318" font-family="SF Pro Display, sans-serif" font-size="11" font-weight="600" fill="#6B6E78" letter-spacing="1">GPU</text>
    <text x="52" y="354" font-family="SF Pro Display, sans-serif" font-size="34" font-weight="700" fill="#F0F2F5">0%</text>
    <polyline points="52,382 82,382 112,382 142,381 172,382 202,382 232,382 262,382"
              fill="none" stroke="#813D9C" stroke-width="2"/>
    <text x="52" y="418" font-family="SF Pro Display, sans-serif" font-size="10" fill="#6B6E78">NVIDIA GPU 1 • Idle</text>
    <text x="272" y="418" font-family="SF Pro Display, sans-serif" font-size="10" font-weight="600" fill="#FF6B1A" text-anchor="end">Details →</text>
  </g>

  <g>
    <!-- Temperature -->
    <rect x="318" y="290" width="280" height="160" rx="16" fill="#2A2C32" filter="url(#cs4)"/>
    <rect x="318" y="290" width="280" height="160" rx="16" fill="none" stroke="#3A3D4A" stroke-width="1"/>
    <text x="346" y="318" font-family="SF Pro Display, sans-serif" font-size="11" font-weight="600" fill="#6B6E78" letter-spacing="1">TEMPERATURE</text>
    <text x="346" y="354" font-family="SF Pro Display, sans-serif" font-size="34" font-weight="700" fill="#F0F2F5">29.9°C</text>
    <text x="480" y="354" font-family="SF Pro Display, sans-serif" font-size="14" fill="#6B6E78">85.7°F</text>
    <polyline points="346,382 366,380 386,384 406,378 426,382 446,376 466,384 486,380 506,378 526,382 546,380 566,381"
              fill="none" stroke="#5B9BD5" stroke-width="2" stroke-linejoin="round"/>
    <text x="346" y="418" font-family="SF Pro Display, sans-serif" font-size="10" fill="#6B6E78">NVMe - Sensor 2</text>
    <text x="566" y="418" font-family="SF Pro Display, sans-serif" font-size="10" font-weight="600" fill="#FF6B1A" text-anchor="end">Details →</text>
  </g>

  <g>
    <!-- Network -->
    <rect x="612" y="290" width="280" height="160" rx="16" fill="#2A2C32" filter="url(#cs4)"/>
    <rect x="612" y="290" width="280" height="160" rx="16" fill="none" stroke="#3A3D4A" stroke-width="1"/>
    <text x="640" y="318" font-family="SF Pro Display, sans-serif" font-size="11" font-weight="600" fill="#6B6E78" letter-spacing="1">NETWORK</text>
    <text x="640" y="348" font-family="SF Pro Display, sans-serif" font-size="10" fill="#26A69A">↓</text>
    <text x="654" y="348" font-family="SF Pro Display, sans-serif" font-size="22" font-weight="600" fill="#F0F2F5">28.7 KB/s</text>
    <text x="640" y="376" font-family="SF Pro Display, sans-serif" font-size="10" fill="#E05454">↑</text>
    <text x="654" y="376" font-family="SF Pro Display, sans-serif" font-size="22" font-weight="600" fill="#F0F2F5">8.0 KB/s</text>
    <polyline points="640,400 660,398 680,402 700,394 720,406 740,392 760,400 780,390 800,404 820,396 840,400 860,397"
              fill="none" stroke="#26A69A" stroke-width="1.5" stroke-linejoin="round"/>
    <text x="640" y="418" font-family="SF Pro Display, sans-serif" font-size="10" fill="#6B6E78">↓ 9.2 GiB • ↑ 25.8 GiB total</text>
    <text x="860" y="418" font-family="SF Pro Display, sans-serif" font-size="10" font-weight="600" fill="#FF6B1A" text-anchor="end">Details →</text>
  </g>

  <g>
    <!-- Battery -->
    <rect x="906" y="290" width="274" height="160" rx="16" fill="#2A2C32" filter="url(#cs4)"/>
    <rect x="906" y="290" width="274" height="160" rx="16" fill="none" stroke="#3A3D4A" stroke-width="1"/>
    <text x="934" y="318" font-family="SF Pro Display, sans-serif" font-size="11" font-weight="600" fill="#6B6E78" letter-spacing="1">BATTERY</text>
    <text x="934" y="354" font-family="SF Pro Display, sans-serif" font-size="34" font-weight="700" fill="#F0F2F5">85%</text>
    <rect x="1030" y="334" width="36" height="18" rx="3" fill="none" stroke="#2EC27E" stroke-width="1.5"/>
    <rect x="1066" y="338" width="4" height="10" rx="1" fill="#2EC27E"/>
    <rect x="1033" y="337" width="27" height="12" rx="1.5" fill="#2EC27E"/>
    <polyline points="934,382 954,381 974,380 994,382 1014,381 1034,380 1054,382 1074,381 1094,380 1114,381 1134,380 1148,381"
              fill="none" stroke="#2EC27E" stroke-width="2" stroke-linejoin="round"/>
    <text x="934" y="418" font-family="SF Pro Display, sans-serif" font-size="10" fill="#6B6E78">Charging • Healthy • ~2h 15m</text>
    <text x="1148" y="418" font-family="SF Pro Display, sans-serif" font-size="10" font-weight="600" fill="#FF6B1A" text-anchor="end">Details →</text>
  </g>

  <!-- Row 3: System Health Summary (full width) -->
  <rect x="24" y="466" width="1156" height="60" rx="16" fill="#2A2C32" filter="url(#cs4)"/>
  <rect x="24" y="466" width="1156" height="60" rx="16" fill="none" stroke="#3A3D4A" stroke-width="1"/>
  <text x="52" y="492" font-family="SF Pro Display, sans-serif" font-size="11" font-weight="600" fill="#6B6E78" letter-spacing="1">SYSTEM HEALTH</text>
  <circle cx="164" cy="488" r="4" fill="#2EC27E"/>
  <text x="176" y="492" font-family="SF Pro Display, sans-serif" font-size="11" fill="#F0F2F5">All drives healthy</text>
  <circle cx="322" cy="488" r="4" fill="#2EC27E"/>
  <text x="334" y="492" font-family="SF Pro Display, sans-serif" font-size="11" fill="#F0F2F5">Battery OK</text>
  <circle cx="440" cy="488" r="4" fill="#FFB347"/>
  <text x="452" y="492" font-family="SF Pro Display, sans-serif" font-size="11" fill="#F0F2F5">2.1 GB reclaimable</text>
  <text x="52" y="514" font-family="SF Pro Display, sans-serif" font-size="10" fill="#6B6E78">media • Ubuntu 24.04 • Ryzen 7 5700X • Last clean: 2h ago • Next: Tomorrow 3:00 AM</text>

  <!-- Dropdown menu showing (Hardware) -->
  <rect x="220" y="52" width="180" height="90" rx="12" fill="#2A2C32" filter="url(#cs4)" stroke="#3A3D4A" stroke-width="1"/>
  <rect x="232" y="62" width="156" height="30" rx="6" fill="#32343A"/>
  <text x="248" y="82" font-family="SF Pro Display, sans-serif" font-size="12" fill="#F0F2F5">Hardware Info</text>
  <text x="248" y="114" font-family="SF Pro Display, sans-serif" font-size="12" fill="#9A9DA6">Resources</text>

  <!-- Footer -->
  <rect x="0" y="776" width="1200" height="24" fill="#222228"/>
  <text x="24" y="792" font-family="SF Pro Display, sans-serif" font-size="9" fill="#6B6E78">Ctrl+K: Command Palette</text>
  <text x="1176" y="792" font-family="SF Pro Display, sans-serif" font-size="9" fill="#6B6E78" text-anchor="end">Nexis v1.2.1</text>

  <!-- Title -->
  <text x="600" y="568" font-family="SF Pro Display, sans-serif" font-size="14" font-weight="700" fill="#FF6B1A" text-anchor="middle">Concept B: Top-Bar Navigation — Full-Width Dashboard Hub</text>
  <text x="600" y="588" font-family="SF Pro Display, sans-serif" font-size="11" fill="#6B6E78" text-anchor="middle">No sidebar • Dropdown menus for categories • Maximum content width • "Details →" links to subpages • Health summary bar</text>
</svg>
